<?xml version="1.0" encoding="UTF-8"?>
<svg width="200px" height="120px" viewBox="0 0 200 120" version="1.1" xmlns="http://www.w3.org/2000/svg">
    <g id="Kids-Hero" stroke="none" stroke-width="1" fill="none" fill-rule="evenodd">
        <!-- Sun -->
        <circle id="Sun" fill="#FFD600" cx="160" cy="30" r="15"></circle>
        
        <!-- Earth -->
        <circle id="Earth" fill="#4CAF50" cx="60" cy="80" r="30"></circle>
        <path d="M40,70 C45,60 75,60 80,70" id="Land" stroke="#8BC34A" stroke-width="5"></path>
        <path d="M40,90 C45,80 75,80 80,90" id="Land-2" stroke="#8BC34A" stroke-width="5"></path>
        
        <!-- Kids -->
        <circle id="Kid-1-Head" fill="#FFB74D" cx="100" cy="55" r="10"></circle>
        <rect id="Kid-1-Body" fill="#2196F3" x="95" y="65" width="10" height="15" rx="2"></rect>
        <rect id="Kid-1-Leg-Left" fill="#FFA000" x="95" y="80" width="4" height="10" rx="2"></rect>
        <rect id="Kid-1-Leg-Right" fill="#FFA000" x="101" y="80" width="4" height="10" rx="2"></rect>
        <rect id="Kid-1-Arm-Left" fill="#2196F3" x="90" y="65" width="5" height="8" rx="2"></rect>
        <rect id="Kid-1-Arm-Right" fill="#2196F3" x="105" y="65" width="5" height="8" rx="2"></rect>
        
        <circle id="Kid-2-Head" fill="#FFECB3" cx="130" cy="60" r="8"></circle>
        <rect id="Kid-2-Body" fill="#E91E63" x="126" y="68" width="8" height="12" rx="2"></rect>
        <rect id="Kid-2-Leg-Left" fill="#FFA000" x="126" y="80" width="3" height="10" rx="1.5"></rect>
        <rect id="Kid-2-Leg-Right" fill="#FFA000" x="131" y="80" width="3" height="10" rx="1.5"></rect>
        <rect id="Kid-2-Arm-Left" fill="#E91E63" x="122" y="68" width="4" height="7" rx="2"></rect>
        <rect id="Kid-2-Arm-Right" fill="#E91E63" x="134" y="68" width="4" height="7" rx="2"></rect>
        
        <circle id="Kid-3-Head" fill="#BBDEFB" cx="115" cy="70" r="7"></circle>
        <rect id="Kid-3-Body" fill="#673AB7" x="112" y="77" width="6" height="10" rx="2"></rect>
        <rect id="Kid-3-Leg-Left" fill="#FFA000" x="112" y="87" width="2" height="7" rx="1"></rect>
        <rect id="Kid-3-Leg-Right" fill="#FFA000" x="116" y="87" width="2" height="7" rx="1"></rect>
        <rect id="Kid-3-Arm-Left" fill="#673AB7" x="109" y="77" width="3" height="6" rx="1.5"></rect>
        <rect id="Kid-3-Arm-Right" fill="#673AB7" x="118" y="77" width="3" height="6" rx="1.5"></rect>
        
        <!-- Plants -->
        <path d="M25,100 C25,90 35,90 35,100" id="Plant-1" stroke="#4CAF50" stroke-width="3" stroke-linecap="round"></path>
        <rect id="Plant-1-Pot" fill="#795548" x="25" y="100" width="10" height="5" rx="1"></rect>
        
        <path d="M175,90 C175,80 185,80 185,90" id="Plant-2" stroke="#8BC34A" stroke-width="3" stroke-linecap="round"></path>
        <path d="M180,90 C180,80 190,80 190,90" id="Plant-2-Leaf" stroke="#8BC34A" stroke-width="3" stroke-linecap="round"></path>
        <rect id="Plant-2-Pot" fill="#795548" x="175" y="90" width="15" height="7" rx="1"></rect>
    </g>
</svg>